<?xml version="1.0" encoding="UTF-8" standalone="no"?>
<!DOCTYPE svg PUBLIC "-//W3C//DTD SVG 1.1//EN"
 "http://www.w3.org/Graphics/SVG/1.1/DTD/svg11.dtd">
<!-- Generated by graphviz version 12.2.1 (20241206.2353)
 -->
<!-- Pages: 1 -->
<svg width="1382pt" height="404pt"
 viewBox="0.00 0.00 1381.74 404.00" xmlns="http://www.w3.org/2000/svg" xmlns:xlink="http://www.w3.org/1999/xlink">
<g id="graph0" class="graph" transform="scale(1 1) rotate(0) translate(4 400)">
<polygon fill="white" stroke="none" points="-4,4 -4,-400 1377.74,-400 1377.74,4 -4,4"/>
<!-- jklUbNCIISNqN -->
<g id="node1" class="node">
<title>jklUbNCIISNqN</title>
<ellipse fill="none" stroke="black" cx="523.34" cy="-90" rx="73.87" ry="18"/>
<text text-anchor="middle" x="523.34" y="-84.95" font-family="Times,serif" font-size="14.00">jklUbNCIISNqN</text>
</g>
<!-- dxHkIhlHiG -->
<g id="node2" class="node">
<title>dxHkIhlHiG</title>
<ellipse fill="none" stroke="black" cx="119.34" cy="-18" rx="57.49" ry="18"/>
<text text-anchor="middle" x="119.34" y="-12.95" font-family="Times,serif" font-size="14.00">dxHkIhlHiG</text>
</g>
<!-- nahcdqpDrtRxU -->
<g id="node3" class="node">
<title>nahcdqpDrtRxU</title>
<ellipse fill="none" stroke="black" cx="322.34" cy="-162" rx="71.82" ry="18"/>
<text text-anchor="middle" x="322.34" y="-156.95" font-family="Times,serif" font-size="14.00">nahcdqpDrtRxU</text>
</g>
<!-- nahcdqpDrtRxU&#45;&gt;jklUbNCIISNqN -->
<g id="edge1" class="edge">
<title>nahcdqpDrtRxU&#45;&gt;jklUbNCIISNqN</title>
<path fill="none" stroke="black" d="M363.01,-146.83C394.37,-135.91 437.96,-120.73 471.77,-108.96"/>
<polygon fill="black" stroke="black" points="472.65,-112.36 480.95,-105.76 470.35,-105.75 472.65,-112.36"/>
</g>
<!-- wmpOjLcBOI -->
<g id="node4" class="node">
<title>wmpOjLcBOI</title>
<ellipse fill="none" stroke="black" cx="122.34" cy="-234" rx="64.66" ry="18"/>
<text text-anchor="middle" x="122.34" y="-228.95" font-family="Times,serif" font-size="14.00">wmpOjLcBOI</text>
</g>
<!-- gGpgZsJwxwN -->
<g id="node5" class="node">
<title>gGpgZsJwxwN</title>
<ellipse fill="none" stroke="black" cx="1273.34" cy="-90" rx="68.75" ry="18"/>
<text text-anchor="middle" x="1273.34" y="-84.95" font-family="Times,serif" font-size="14.00">gGpgZsJwxwN</text>
</g>
<!-- jYvjxvhRe -->
<g id="node6" class="node">
<title>jYvjxvhRe</title>
<ellipse fill="none" stroke="black" cx="1066.34" cy="-18" rx="50.84" ry="18"/>
<text text-anchor="middle" x="1066.34" y="-12.95" font-family="Times,serif" font-size="14.00">jYvjxvhRe</text>
</g>
<!-- gGpgZsJwxwN&#45;&gt;jYvjxvhRe -->
<g id="edge2" class="edge">
<title>gGpgZsJwxwN&#45;&gt;jYvjxvhRe</title>
<path fill="none" stroke="black" d="M1232.44,-75.17C1198.06,-63.54 1148.91,-46.92 1113,-34.78"/>
<polygon fill="black" stroke="black" points="1114.34,-31.54 1103.74,-31.65 1112.09,-38.17 1114.34,-31.54"/>
</g>
<!-- Pjphchnvr -->
<g id="node7" class="node">
<title>Pjphchnvr</title>
<ellipse fill="none" stroke="black" cx="766.34" cy="-18" rx="48.79" ry="18"/>
<text text-anchor="middle" x="766.34" y="-12.95" font-family="Times,serif" font-size="14.00">Pjphchnvr</text>
</g>
<!-- AVpazZCVgPbW -->
<g id="node8" class="node">
<title>AVpazZCVgPbW</title>
<ellipse fill="none" stroke="black" cx="895.34" cy="-162" rx="77.97" ry="18"/>
<text text-anchor="middle" x="895.34" y="-156.95" font-family="Times,serif" font-size="14.00">AVpazZCVgPbW</text>
</g>
<!-- qIqHeVSCt -->
<g id="node9" class="node">
<title>qIqHeVSCt</title>
<ellipse fill="none" stroke="black" cx="300.34" cy="-18" rx="54.42" ry="18"/>
<text text-anchor="middle" x="300.34" y="-12.95" font-family="Times,serif" font-size="14.00">qIqHeVSCt</text>
</g>
<!-- LMnUtCBqfVrN -->
<g id="node10" class="node">
<title>LMnUtCBqfVrN</title>
<ellipse fill="none" stroke="black" cx="1104.34" cy="-162" rx="75.41" ry="18"/>
<text text-anchor="middle" x="1104.34" y="-156.95" font-family="Times,serif" font-size="14.00">LMnUtCBqfVrN</text>
</g>
<!-- nPjkNciQ -->
<g id="node11" class="node">
<title>nPjkNciQ</title>
<ellipse fill="none" stroke="black" cx="182.34" cy="-90" rx="47.77" ry="18"/>
<text text-anchor="middle" x="182.34" y="-84.95" font-family="Times,serif" font-size="14.00">nPjkNciQ</text>
</g>
<!-- JevrNjZYL -->
<g id="node12" class="node">
<title>JevrNjZYL</title>
<ellipse fill="none" stroke="black" cx="746.34" cy="-162" rx="53.4" ry="18"/>
<text text-anchor="middle" x="746.34" y="-156.95" font-family="Times,serif" font-size="14.00">JevrNjZYL</text>
</g>
<!-- aVKWaEJhMaCX -->
<g id="node13" class="node">
<title>aVKWaEJhMaCX</title>
<ellipse fill="none" stroke="black" cx="847.34" cy="-90" rx="80.52" ry="18"/>
<text text-anchor="middle" x="847.34" y="-84.95" font-family="Times,serif" font-size="14.00">aVKWaEJhMaCX</text>
</g>
<!-- JevrNjZYL&#45;&gt;aVKWaEJhMaCX -->
<g id="edge3" class="edge">
<title>JevrNjZYL&#45;&gt;aVKWaEJhMaCX</title>
<path fill="none" stroke="black" d="M769,-145.29C782.27,-136.1 799.25,-124.32 814.02,-114.09"/>
<polygon fill="black" stroke="black" points="815.87,-117.07 822.09,-108.49 811.88,-111.31 815.87,-117.07"/>
</g>
<!-- aVKWaEJhMaCX&#45;&gt;Pjphchnvr -->
<g id="edge4" class="edge">
<title>aVKWaEJhMaCX&#45;&gt;Pjphchnvr</title>
<path fill="none" stroke="black" d="M827.73,-72.05C817.46,-63.18 804.72,-52.17 793.51,-42.49"/>
<polygon fill="black" stroke="black" points="795.93,-39.95 786.07,-36.06 791.35,-45.24 795.93,-39.95"/>
</g>
<!-- ANBSHXzvS -->
<g id="node14" class="node">
<title>ANBSHXzvS</title>
<ellipse fill="none" stroke="black" cx="460.34" cy="-18" rx="62.61" ry="18"/>
<text text-anchor="middle" x="460.34" y="-12.95" font-family="Times,serif" font-size="14.00">ANBSHXzvS</text>
</g>
<!-- cbHueirRa -->
<g id="node15" class="node">
<title>cbHueirRa</title>
<ellipse fill="none" stroke="black" cx="341.34" cy="-90" rx="50.84" ry="18"/>
<text text-anchor="middle" x="341.34" y="-84.95" font-family="Times,serif" font-size="14.00">cbHueirRa</text>
</g>
<!-- rICwOuAjiDEx -->
<g id="node16" class="node">
<title>rICwOuAjiDEx</title>
<ellipse fill="none" stroke="black" cx="623.34" cy="-18" rx="69.78" ry="18"/>
<text text-anchor="middle" x="623.34" y="-12.95" font-family="Times,serif" font-size="14.00">rICwOuAjiDEx</text>
</g>
<!-- jfCzcjLBsCChX -->
<g id="node17" class="node">
<title>jfCzcjLBsCChX</title>
<ellipse fill="none" stroke="black" cx="72.34" cy="-306" rx="72.34" ry="18"/>
<text text-anchor="middle" x="72.34" y="-300.95" font-family="Times,serif" font-size="14.00">jfCzcjLBsCChX</text>
</g>
<!-- jfCzcjLBsCChX&#45;&gt;dxHkIhlHiG -->
<g id="edge11" class="edge">
<title>jfCzcjLBsCChX&#45;&gt;dxHkIhlHiG</title>
<path fill="none" stroke="black" d="M62.38,-287.98C57.06,-277.89 51.06,-264.64 48.34,-252 38.19,-204.98 43.35,-190.58 55.34,-144 64.69,-107.64 85.95,-69.79 101.41,-45.4"/>
<polygon fill="black" stroke="black" points="104.29,-47.38 106.8,-37.09 98.42,-43.57 104.29,-47.38"/>
</g>
<!-- jfCzcjLBsCChX&#45;&gt;wmpOjLcBOI -->
<g id="edge19" class="edge">
<title>jfCzcjLBsCChX&#45;&gt;wmpOjLcBOI</title>
<path fill="none" stroke="black" d="M84.44,-288.05C90.21,-279.97 97.25,-270.12 103.68,-261.11"/>
<polygon fill="black" stroke="black" points="106.5,-263.19 109.46,-253.02 100.8,-259.12 106.5,-263.19"/>
</g>
<!-- jfCzcjLBsCChX&#45;&gt;qIqHeVSCt -->
<g id="edge18" class="edge">
<title>jfCzcjLBsCChX&#45;&gt;qIqHeVSCt</title>
<path fill="none" stroke="black" d="M130.25,-294.93C154.97,-287.45 181.5,-274.47 196.34,-252 205.15,-238.65 204.78,-229.59 196.34,-216 177.23,-185.28 142.44,-210.72 123.34,-180 114.4,-165.63 110.57,-91.34 125.34,-72 139.68,-53.22 196.53,-38.36 241.59,-29.21"/>
<polygon fill="black" stroke="black" points="242.14,-32.67 251.28,-27.3 240.79,-25.8 242.14,-32.67"/>
</g>
<!-- jfCzcjLBsCChX&#45;&gt;nPjkNciQ -->
<g id="edge9" class="edge">
<title>jfCzcjLBsCChX&#45;&gt;nPjkNciQ</title>
<path fill="none" stroke="black" d="M141.18,-300.16C174.1,-293.96 210.75,-280.56 231.34,-252 284.01,-178.92 139.44,-190.14 132.34,-180 117.52,-158.85 135.76,-132.95 154.23,-114.55"/>
<polygon fill="black" stroke="black" points="156.62,-117.11 161.51,-107.71 151.83,-112.01 156.62,-117.11"/>
</g>
<!-- jfCzcjLBsCChX&#45;&gt;ANBSHXzvS -->
<g id="edge7" class="edge">
<title>jfCzcjLBsCChX&#45;&gt;ANBSHXzvS</title>
<path fill="none" stroke="black" d="M131.51,-295.28C177.84,-286.32 236.79,-271.48 251.34,-252 260.91,-239.18 258.89,-230.11 251.34,-216 237.73,-190.57 210.95,-205.43 197.34,-180 189.79,-165.89 190.65,-158.54 197.34,-144 197.34,-144 281.34,-72 281.34,-72 317.43,-52.36 361.67,-39.18 397.14,-30.87"/>
<polygon fill="black" stroke="black" points="397.87,-34.29 406.85,-28.68 396.33,-27.47 397.87,-34.29"/>
</g>
<!-- jfCzcjLBsCChX&#45;&gt;cbHueirRa -->
<g id="edge20" class="edge">
<title>jfCzcjLBsCChX&#45;&gt;cbHueirRa</title>
<path fill="none" stroke="black" d="M139.91,-299.1C202.03,-292.11 287.54,-277.98 308.34,-252 318.33,-239.51 317.54,-229.09 308.34,-216 281.17,-177.35 235.5,-218.65 208.34,-180 199.14,-166.91 199.36,-157.24 208.34,-144 218.14,-129.54 257.3,-114.97 290.6,-104.78"/>
<polygon fill="black" stroke="black" points="291.59,-108.14 300.17,-101.93 289.59,-101.43 291.59,-108.14"/>
</g>
<!-- jfCzcjLBsCChX&#45;&gt;rICwOuAjiDEx -->
<g id="edge17" class="edge">
<title>jfCzcjLBsCChX&#45;&gt;rICwOuAjiDEx</title>
<path fill="none" stroke="black" d="M141.24,-300.2C208.31,-293.93 303.39,-280.23 326.34,-252 336.43,-239.58 335.17,-229.34 326.34,-216 303.68,-181.8 263.99,-214.2 241.34,-180 232.5,-166.66 231.34,-156.49 241.34,-144 286.87,-87.08 336.8,-141.88 401.34,-108 422.22,-97.04 419.79,-83.59 440.34,-72 475.71,-52.04 519.25,-39.04 554.99,-30.9"/>
<polygon fill="black" stroke="black" points="555.32,-34.42 564.34,-28.86 553.82,-27.58 555.32,-34.42"/>
</g>
<!-- CvbzpjV -->
<g id="node18" class="node">
<title>CvbzpjV</title>
<ellipse fill="none" stroke="black" cx="442.34" cy="-234" rx="44.19" ry="18"/>
<text text-anchor="middle" x="442.34" y="-228.95" font-family="Times,serif" font-size="14.00">CvbzpjV</text>
</g>
<!-- jfCzcjLBsCChX&#45;&gt;CvbzpjV -->
<g id="edge5" class="edge">
<title>jfCzcjLBsCChX&#45;&gt;CvbzpjV</title>
<path fill="none" stroke="black" d="M134.92,-296.57C198.22,-287.52 298.68,-271.76 384.34,-252 388.59,-251.02 392.98,-249.91 397.37,-248.74"/>
<polygon fill="black" stroke="black" points="398.01,-252.19 406.7,-246.14 396.13,-245.45 398.01,-252.19"/>
</g>
<!-- EsqmXyL -->
<g id="node19" class="node">
<title>EsqmXyL</title>
<ellipse fill="none" stroke="black" cx="553.34" cy="-234" rx="49.3" ry="18"/>
<text text-anchor="middle" x="553.34" y="-228.95" font-family="Times,serif" font-size="14.00">EsqmXyL</text>
</g>
<!-- jfCzcjLBsCChX&#45;&gt;EsqmXyL -->
<g id="edge6" class="edge">
<title>jfCzcjLBsCChX&#45;&gt;EsqmXyL</title>
<path fill="none" stroke="black" d="M140.66,-299.84C224.74,-292.7 371.6,-277.71 495.34,-252 498.88,-251.26 502.52,-250.42 506.17,-249.5"/>
<polygon fill="black" stroke="black" points="506.83,-252.95 515.59,-246.99 505.03,-246.19 506.83,-252.95"/>
</g>
<!-- KPrdAtD -->
<g id="node20" class="node">
<title>KPrdAtD</title>
<ellipse fill="none" stroke="black" cx="661.34" cy="-90" rx="46.23" ry="18"/>
<text text-anchor="middle" x="661.34" y="-84.95" font-family="Times,serif" font-size="14.00">KPrdAtD</text>
</g>
<!-- jfCzcjLBsCChX&#45;&gt;KPrdAtD -->
<g id="edge8" class="edge">
<title>jfCzcjLBsCChX&#45;&gt;KPrdAtD</title>
<path fill="none" stroke="black" d="M143.15,-301.87C280.67,-295.23 573.72,-278.19 611.34,-252 653.71,-222.5 661.43,-157.21 662.13,-119.46"/>
<polygon fill="black" stroke="black" points="665.63,-119.77 662.14,-109.76 658.63,-119.76 665.63,-119.77"/>
</g>
<!-- WSmBtKhqFYqmY -->
<g id="node21" class="node">
<title>WSmBtKhqFYqmY</title>
<ellipse fill="none" stroke="black" cx="745.34" cy="-234" rx="87.18" ry="18"/>
<text text-anchor="middle" x="745.34" y="-228.95" font-family="Times,serif" font-size="14.00">WSmBtKhqFYqmY</text>
</g>
<!-- jfCzcjLBsCChX&#45;&gt;WSmBtKhqFYqmY -->
<g id="edge10" class="edge">
<title>jfCzcjLBsCChX&#45;&gt;WSmBtKhqFYqmY</title>
<path fill="none" stroke="black" d="M141.2,-300.28C248.83,-292.53 463.36,-275.58 644.34,-252 652.61,-250.92 661.25,-249.67 669.83,-248.34"/>
<polygon fill="black" stroke="black" points="670.23,-251.82 679.56,-246.79 669.14,-244.9 670.23,-251.82"/>
</g>
<!-- stnodEVxYJU -->
<g id="node22" class="node">
<title>stnodEVxYJU</title>
<ellipse fill="none" stroke="black" cx="917.34" cy="-234" rx="64.66" ry="18"/>
<text text-anchor="middle" x="917.34" y="-228.95" font-family="Times,serif" font-size="14.00">stnodEVxYJU</text>
</g>
<!-- jfCzcjLBsCChX&#45;&gt;stnodEVxYJU -->
<g id="edge12" class="edge">
<title>jfCzcjLBsCChX&#45;&gt;stnodEVxYJU</title>
<path fill="none" stroke="black" d="M144.55,-303.66C281.24,-300.32 586.9,-289.01 841.34,-252 847.04,-251.17 852.96,-250.14 858.85,-249.01"/>
<polygon fill="black" stroke="black" points="859.52,-252.45 868.62,-247.03 858.13,-245.59 859.52,-252.45"/>
</g>
<!-- ZdiPdnxrPj -->
<g id="node23" class="node">
<title>ZdiPdnxrPj</title>
<ellipse fill="none" stroke="black" cx="889.34" cy="-18" rx="53.4" ry="18"/>
<text text-anchor="middle" x="889.34" y="-12.95" font-family="Times,serif" font-size="14.00">ZdiPdnxrPj</text>
</g>
<!-- jfCzcjLBsCChX&#45;&gt;ZdiPdnxrPj -->
<g id="edge13" class="edge">
<title>jfCzcjLBsCChX&#45;&gt;ZdiPdnxrPj</title>
<path fill="none" stroke="black" d="M144.48,-303.51C356.14,-298.8 962.38,-282.67 991.34,-252 1049.83,-190.03 962.17,-89.08 915.46,-43.14"/>
<polygon fill="black" stroke="black" points="917.98,-40.7 908.35,-36.27 913.12,-45.74 917.98,-40.7"/>
</g>
<!-- gbmbhtmuWI -->
<g id="node24" class="node">
<title>gbmbhtmuWI</title>
<ellipse fill="none" stroke="black" cx="1103.34" cy="-234" rx="64.15" ry="18"/>
<text text-anchor="middle" x="1103.34" y="-228.95" font-family="Times,serif" font-size="14.00">gbmbhtmuWI</text>
</g>
<!-- jfCzcjLBsCChX&#45;&gt;gbmbhtmuWI -->
<g id="edge14" class="edge">
<title>jfCzcjLBsCChX&#45;&gt;gbmbhtmuWI</title>
<path fill="none" stroke="black" d="M145.04,-304.89C304.96,-303.78 698.99,-296.35 1025.34,-252 1031.76,-251.13 1038.44,-250.01 1045.06,-248.76"/>
<polygon fill="black" stroke="black" points="1045.51,-252.24 1054.63,-246.85 1044.14,-245.37 1045.51,-252.24"/>
</g>
<!-- efKUwUDT -->
<g id="node25" class="node">
<title>efKUwUDT</title>
<ellipse fill="none" stroke="black" cx="1107.34" cy="-90" rx="56.98" ry="18"/>
<text text-anchor="middle" x="1107.34" y="-84.95" font-family="Times,serif" font-size="14.00">efKUwUDT</text>
</g>
<!-- jfCzcjLBsCChX&#45;&gt;efKUwUDT -->
<g id="edge15" class="edge">
<title>jfCzcjLBsCChX&#45;&gt;efKUwUDT</title>
<path fill="none" stroke="black" d="M144.42,-304.01C383.55,-300.39 1137.75,-286.31 1176.34,-252 1212.43,-219.91 1211.31,-186.48 1188.34,-144 1180.41,-129.35 1166.48,-118.09 1152.38,-109.81"/>
<polygon fill="black" stroke="black" points="1154.45,-106.95 1144,-105.26 1151.12,-113.1 1154.45,-106.95"/>
</g>
<!-- czbiuAchwbWM -->
<g id="node26" class="node">
<title>czbiuAchwbWM</title>
<ellipse fill="none" stroke="black" cx="1298.34" cy="-234" rx="75.41" ry="18"/>
<text text-anchor="middle" x="1298.34" y="-228.95" font-family="Times,serif" font-size="14.00">czbiuAchwbWM</text>
</g>
<!-- jfCzcjLBsCChX&#45;&gt;czbiuAchwbWM -->
<g id="edge16" class="edge">
<title>jfCzcjLBsCChX&#45;&gt;czbiuAchwbWM</title>
<path fill="none" stroke="black" d="M144.79,-305.18C325.29,-304.87 809.24,-299.29 1209.34,-252 1216.79,-251.12 1224.55,-249.98 1232.26,-248.7"/>
<polygon fill="black" stroke="black" points="1232.71,-252.17 1241.96,-247.01 1231.51,-245.28 1232.71,-252.17"/>
</g>
<!-- CvbzpjV&#45;&gt;nahcdqpDrtRxU -->
<g id="edge28" class="edge">
<title>CvbzpjV&#45;&gt;nahcdqpDrtRxU</title>
<path fill="none" stroke="black" d="M417.76,-218.67C401.02,-208.9 378.55,-195.79 359.62,-184.75"/>
<polygon fill="black" stroke="black" points="361.52,-181.8 351.12,-179.79 357.99,-187.85 361.52,-181.8"/>
</g>
<!-- HjnOUmD -->
<g id="node30" class="node">
<title>HjnOUmD</title>
<ellipse fill="none" stroke="black" cx="464.34" cy="-162" rx="52.38" ry="18"/>
<text text-anchor="middle" x="464.34" y="-156.95" font-family="Times,serif" font-size="14.00">HjnOUmD</text>
</g>
<!-- CvbzpjV&#45;&gt;HjnOUmD -->
<g id="edge29" class="edge">
<title>CvbzpjV&#45;&gt;HjnOUmD</title>
<path fill="none" stroke="black" d="M447.77,-215.7C450.12,-208.24 452.92,-199.32 455.55,-190.97"/>
<polygon fill="black" stroke="black" points="458.85,-192.14 458.51,-181.55 452.17,-190.04 458.85,-192.14"/>
</g>
<!-- CwGzhNE -->
<g id="node27" class="node">
<title>CwGzhNE</title>
<ellipse fill="none" stroke="black" cx="586.34" cy="-162" rx="51.35" ry="18"/>
<text text-anchor="middle" x="586.34" y="-156.95" font-family="Times,serif" font-size="14.00">CwGzhNE</text>
</g>
<!-- EsqmXyL&#45;&gt;CwGzhNE -->
<g id="edge23" class="edge">
<title>EsqmXyL&#45;&gt;CwGzhNE</title>
<path fill="none" stroke="black" d="M561.32,-216.05C565.01,-208.23 569.48,-198.75 573.62,-189.98"/>
<polygon fill="black" stroke="black" points="576.68,-191.7 577.78,-181.16 570.35,-188.71 576.68,-191.7"/>
</g>
<!-- WSmBtKhqFYqmY&#45;&gt;JevrNjZYL -->
<g id="edge22" class="edge">
<title>WSmBtKhqFYqmY&#45;&gt;JevrNjZYL</title>
<path fill="none" stroke="black" d="M745.58,-215.7C745.69,-208.41 745.81,-199.73 745.93,-191.54"/>
<polygon fill="black" stroke="black" points="749.43,-191.67 746.07,-181.62 742.43,-191.57 749.43,-191.67"/>
</g>
<!-- stnodEVxYJU&#45;&gt;AVpazZCVgPbW -->
<g id="edge21" class="edge">
<title>stnodEVxYJU&#45;&gt;AVpazZCVgPbW</title>
<path fill="none" stroke="black" d="M911.9,-215.7C909.55,-208.24 906.75,-199.32 904.12,-190.97"/>
<polygon fill="black" stroke="black" points="907.5,-190.04 901.17,-181.55 900.82,-192.14 907.5,-190.04"/>
</g>
<!-- gbmbhtmuWI&#45;&gt;LMnUtCBqfVrN -->
<g id="edge27" class="edge">
<title>gbmbhtmuWI&#45;&gt;LMnUtCBqfVrN</title>
<path fill="none" stroke="black" d="M1103.58,-215.7C1103.69,-208.41 1103.81,-199.73 1103.93,-191.54"/>
<polygon fill="black" stroke="black" points="1107.43,-191.67 1104.07,-181.62 1100.43,-191.57 1107.43,-191.67"/>
</g>
<!-- UmpYCAZM -->
<g id="node28" class="node">
<title>UmpYCAZM</title>
<ellipse fill="none" stroke="black" cx="1299.34" cy="-162" rx="63.63" ry="18"/>
<text text-anchor="middle" x="1299.34" y="-156.95" font-family="Times,serif" font-size="14.00">UmpYCAZM</text>
</g>
<!-- czbiuAchwbWM&#45;&gt;UmpYCAZM -->
<g id="edge24" class="edge">
<title>czbiuAchwbWM&#45;&gt;UmpYCAZM</title>
<path fill="none" stroke="black" d="M1298.58,-215.7C1298.69,-208.41 1298.81,-199.73 1298.93,-191.54"/>
<polygon fill="black" stroke="black" points="1302.43,-191.67 1299.07,-181.62 1295.43,-191.57 1302.43,-191.67"/>
</g>
<!-- UmpYCAZM&#45;&gt;gGpgZsJwxwN -->
<g id="edge26" class="edge">
<title>UmpYCAZM&#45;&gt;gGpgZsJwxwN</title>
<path fill="none" stroke="black" d="M1292.91,-143.7C1290.11,-136.15 1286.75,-127.12 1283.62,-118.68"/>
<polygon fill="black" stroke="black" points="1286.98,-117.68 1280.22,-109.52 1280.42,-120.12 1286.98,-117.68"/>
</g>
<g id="node29" class="node">
<title></title>
<ellipse fill="none" stroke="black" cx="72.34" cy="-378" rx="27" ry="18"/>
</g>
<!-- &#45;&gt;jfCzcjLBsCChX -->
<g id="edge25" class="edge">
<title>&#45;&gt;jfCzcjLBsCChX</title>
<path fill="none" stroke="black" d="M72.34,-359.7C72.34,-352.41 72.34,-343.73 72.34,-335.54"/>
<polygon fill="black" stroke="black" points="75.84,-335.62 72.34,-325.62 68.84,-335.62 75.84,-335.62"/>
</g>
</g>
</svg>
